<svg width="656" height="57" viewBox="0 0 656 57" fill="none" xmlns="http://www.w3.org/2000/svg">
<path d="M0.214407 56L1.23441 0.919996H8.78241L18.5064 45.596L28.2984 0.919996H35.7784L36.7984 56H30.6104L29.9984 16.016L20.6824 56H16.3304L7.08241 16.016L6.47041 56H0.214407ZM51.701 56.544C50.1597 56.544 48.7997 56.1133 47.621 55.252C46.4424 54.3453 45.513 53.212 44.833 51.852C44.153 50.4467 43.813 48.9733 43.813 47.432C43.813 44.984 44.221 42.9213 45.037 41.244C45.853 39.5667 46.9637 38.1613 48.369 37.028C49.8197 35.8493 51.4744 34.8293 53.333 33.968C55.237 33.1067 57.2317 32.268 59.317 31.452V28.664C59.317 27.0773 59.2264 25.7627 59.045 24.72C58.8637 23.6773 58.4784 22.9067 57.889 22.408C57.345 21.864 56.5064 21.592 55.373 21.592C54.3757 21.592 53.5597 21.8187 52.925 22.272C52.3357 22.7253 51.905 23.3827 51.633 24.244C51.361 25.06 51.225 26.0347 51.225 27.168V29.14L44.017 28.868C44.1077 24.516 45.105 21.32 47.009 19.28C48.913 17.1947 51.8597 16.152 55.849 16.152C59.7477 16.152 62.513 17.2173 64.145 19.348C65.777 21.4787 66.593 24.5613 66.593 28.596V46.548C66.593 47.772 66.6157 48.9507 66.661 50.084C66.7517 51.2173 66.8424 52.2827 66.933 53.28C67.069 54.232 67.1824 55.1387 67.273 56H60.609C60.473 55.2747 60.2917 54.368 60.065 53.28C59.8837 52.1467 59.7477 51.1267 59.657 50.22C59.2037 51.7613 58.3197 53.212 57.005 54.572C55.7357 55.8867 53.9677 56.544 51.701 56.544ZM54.557 50.288C55.2824 50.288 55.9624 50.084 56.597 49.676C57.2317 49.268 57.7984 48.8147 58.297 48.316C58.7957 47.772 59.1357 47.3413 59.317 47.024V35.872C58.1837 36.5067 57.1184 37.1413 56.121 37.776C55.1237 38.4107 54.2397 39.0907 53.469 39.816C52.7437 40.496 52.1544 41.2893 51.701 42.196C51.293 43.0573 51.089 44.0547 51.089 45.188C51.089 46.7747 51.3837 48.0213 51.973 48.928C52.5624 49.8347 53.4237 50.288 54.557 50.288ZM71.0662 56.34V50.832C72.4262 50.832 73.4915 50.56 74.2622 50.016C75.0782 49.472 75.6902 48.5653 76.0982 47.296C76.5515 45.9813 76.8915 44.236 77.1182 42.06C77.3448 39.8387 77.5488 37.0733 77.7302 33.764L78.6142 16.696H99.2182V56H91.9422V22.204H85.0062L84.3942 33.764C84.1675 38.252 83.8275 41.9693 83.3742 44.916C82.9662 47.8627 82.3088 50.1747 81.4022 51.852C80.4955 53.484 79.2715 54.64 77.7302 55.32C76.2342 56 74.2848 56.34 71.8822 56.34H71.0662ZM106.586 56V16.696H113.862V32.948C113.953 32.948 114.066 32.948 114.202 32.948C114.383 32.948 114.542 32.948 114.678 32.948C114.814 32.948 114.927 32.948 115.018 32.948C117.693 32.9933 119.959 33.1973 121.818 33.56C123.722 33.8773 125.263 34.4667 126.442 35.328C127.621 36.144 128.482 37.3 129.026 38.796C129.57 40.2467 129.842 42.128 129.842 44.44C129.842 46.5707 129.57 48.384 129.026 49.88C128.482 51.3307 127.598 52.5093 126.374 53.416C125.15 54.3227 123.541 54.98 121.546 55.388C119.551 55.796 117.126 56 114.27 56H106.586ZM113.862 51.716H114.27C116.582 51.716 118.395 51.512 119.71 51.104C121.025 50.696 121.954 49.9707 122.498 48.928C123.042 47.84 123.314 46.3213 123.314 44.372C123.314 42.604 123.065 41.2213 122.566 40.224C122.113 39.1813 121.251 38.4333 119.982 37.98C118.758 37.4813 116.967 37.232 114.61 37.232C114.565 37.232 114.451 37.232 114.27 37.232C114.089 37.232 113.953 37.232 113.862 37.232V51.716ZM134.33 56V16.696H141.606V56H134.33ZM148.749 56L149.157 16.696H154.529L163.233 40.836L172.005 16.696H177.377L177.785 56H171.665V32.54L164.389 52.124H162.145L154.869 32.676V56H148.749ZM192.017 56.544C190.476 56.544 189.116 56.1133 187.937 55.252C186.759 54.3453 185.829 53.212 185.149 51.852C184.469 50.4467 184.129 48.9733 184.129 47.432C184.129 44.984 184.537 42.9213 185.353 41.244C186.169 39.5667 187.28 38.1613 188.685 37.028C190.136 35.8493 191.791 34.8293 193.649 33.968C195.553 33.1067 197.548 32.268 199.633 31.452V28.664C199.633 27.0773 199.543 25.7627 199.361 24.72C199.18 23.6773 198.795 22.9067 198.205 22.408C197.661 21.864 196.823 21.592 195.689 21.592C194.692 21.592 193.876 21.8187 193.241 22.272C192.652 22.7253 192.221 23.3827 191.949 24.244C191.677 25.06 191.541 26.0347 191.541 27.168V29.14L184.333 28.868C184.424 24.516 185.421 21.32 187.325 19.28C189.229 17.1947 192.176 16.152 196.165 16.152C200.064 16.152 202.829 17.2173 204.461 19.348C206.093 21.4787 206.909 24.5613 206.909 28.596V46.548C206.909 47.772 206.932 48.9507 206.977 50.084C207.068 51.2173 207.159 52.2827 207.249 53.28C207.385 54.232 207.499 55.1387 207.589 56H200.925C200.789 55.2747 200.608 54.368 200.381 53.28C200.2 52.1467 200.064 51.1267 199.973 50.22C199.52 51.7613 198.636 53.212 197.321 54.572C196.052 55.8867 194.284 56.544 192.017 56.544ZM194.873 50.288C195.599 50.288 196.279 50.084 196.913 49.676C197.548 49.268 198.115 48.8147 198.613 48.316C199.112 47.772 199.452 47.3413 199.633 47.024V35.872C198.5 36.5067 197.435 37.1413 196.437 37.776C195.44 38.4107 194.556 39.0907 193.785 39.816C193.06 40.496 192.471 41.2893 192.017 42.196C191.609 43.0573 191.405 44.0547 191.405 45.188C191.405 46.7747 191.7 48.0213 192.289 48.928C192.879 49.8347 193.74 50.288 194.873 50.288ZM218.319 56V22.136H210.975V16.696H233.007V22.136H225.595V56H218.319ZM257.365 56V22.136H250.021V16.696H272.053V22.136H264.641V56H257.365ZM286.867 56.544C283.965 56.544 281.676 55.9547 279.999 54.776C278.321 53.5973 277.12 51.92 276.395 49.744C275.715 47.568 275.375 45.0067 275.375 42.06V30.636C275.375 27.6893 275.715 25.128 276.395 22.952C277.12 20.776 278.321 19.0987 279.999 17.92C281.676 16.7413 283.965 16.152 286.867 16.152C289.768 16.152 292.035 16.7413 293.667 17.92C295.344 19.0987 296.523 20.776 297.203 22.952C297.928 25.128 298.291 27.6893 298.291 30.636V42.06C298.291 45.0067 297.928 47.568 297.203 49.744C296.523 51.92 295.344 53.5973 293.667 54.776C292.035 55.9547 289.768 56.544 286.867 56.544ZM286.867 51.172C288.272 51.172 289.247 50.764 289.791 49.948C290.38 49.132 290.72 48.0667 290.811 46.752C290.947 45.392 291.015 43.9867 291.015 42.536V30.228C291.015 28.732 290.947 27.3267 290.811 26.012C290.72 24.6973 290.38 23.632 289.791 22.816C289.247 21.9547 288.272 21.524 286.867 21.524C285.461 21.524 284.464 21.9547 283.875 22.816C283.285 23.632 282.923 24.6973 282.787 26.012C282.696 27.3267 282.651 28.732 282.651 30.228V42.536C282.651 43.9867 282.696 45.392 282.787 46.752C282.923 48.0667 283.285 49.132 283.875 49.948C284.464 50.764 285.461 51.172 286.867 51.172ZM304.942 56V16.696H327.79V56H320.514V22.204H312.218V56H304.942ZM339.576 56V22.136H332.232V16.696H354.264V22.136H346.852V56H339.576ZM369.078 56.544C366.176 56.544 363.887 55.9547 362.21 54.776C360.532 53.5973 359.331 51.92 358.606 49.744C357.926 47.568 357.586 45.0067 357.586 42.06V30.636C357.586 27.6893 357.926 25.128 358.606 22.952C359.331 20.776 360.532 19.0987 362.21 17.92C363.887 16.7413 366.176 16.152 369.078 16.152C371.979 16.152 374.246 16.7413 375.878 17.92C377.555 19.0987 378.734 20.776 379.414 22.952C380.139 25.128 380.502 27.6893 380.502 30.636V42.06C380.502 45.0067 380.139 47.568 379.414 49.744C378.734 51.92 377.555 53.5973 375.878 54.776C374.246 55.9547 371.979 56.544 369.078 56.544ZM369.078 51.172C370.483 51.172 371.458 50.764 372.002 49.948C372.591 49.132 372.931 48.0667 373.022 46.752C373.158 45.392 373.226 43.9867 373.226 42.536V30.228C373.226 28.732 373.158 27.3267 373.022 26.012C372.931 24.6973 372.591 23.632 372.002 22.816C371.458 21.9547 370.483 21.524 369.078 21.524C367.672 21.524 366.675 21.9547 366.086 22.816C365.496 23.632 365.134 24.6973 364.998 26.012C364.907 27.3267 364.862 28.732 364.862 30.228V42.536C364.862 43.9867 364.907 45.392 364.998 46.752C365.134 48.0667 365.496 49.132 366.086 49.948C366.675 50.764 367.672 51.172 369.078 51.172ZM387.152 56V16.696H410V56H402.724V22.204H394.428V56H387.152ZM429.506 56L439.366 35.94L430.118 16.696H437.054L445.418 35.6H445.962V16.696H451.946V35.6H452.49L460.786 16.696H467.722L458.474 35.94L468.334 56H461.602L452.49 36.688H451.946V56H445.962V36.688H445.35L436.238 56H429.506ZM478.693 56.544C477.152 56.544 475.792 56.1133 474.613 55.252C473.435 54.3453 472.505 53.212 471.825 51.852C471.145 50.4467 470.805 48.9733 470.805 47.432C470.805 44.984 471.213 42.9213 472.029 41.244C472.845 39.5667 473.956 38.1613 475.361 37.028C476.812 35.8493 478.467 34.8293 480.325 33.968C482.229 33.1067 484.224 32.268 486.309 31.452V28.664C486.309 27.0773 486.219 25.7627 486.037 24.72C485.856 23.6773 485.471 22.9067 484.881 22.408C484.337 21.864 483.499 21.592 482.365 21.592C481.368 21.592 480.552 21.8187 479.917 22.272C479.328 22.7253 478.897 23.3827 478.625 24.244C478.353 25.06 478.217 26.0347 478.217 27.168V29.14L471.009 28.868C471.1 24.516 472.097 21.32 474.001 19.28C475.905 17.1947 478.852 16.152 482.841 16.152C486.74 16.152 489.505 17.2173 491.137 19.348C492.769 21.4787 493.585 24.5613 493.585 28.596V46.548C493.585 47.772 493.608 48.9507 493.653 50.084C493.744 51.2173 493.835 52.2827 493.925 53.28C494.061 54.232 494.175 55.1387 494.265 56H487.601C487.465 55.2747 487.284 54.368 487.057 53.28C486.876 52.1467 486.74 51.1267 486.649 50.22C486.196 51.7613 485.312 53.212 483.997 54.572C482.728 55.8867 480.96 56.544 478.693 56.544ZM481.549 50.288C482.275 50.288 482.955 50.084 483.589 49.676C484.224 49.268 484.791 48.8147 485.289 48.316C485.788 47.772 486.128 47.3413 486.309 47.024V35.872C485.176 36.5067 484.111 37.1413 483.113 37.776C482.116 38.4107 481.232 39.0907 480.461 39.816C479.736 40.496 479.147 41.2893 478.693 42.196C478.285 43.0573 478.081 44.0547 478.081 45.188C478.081 46.7747 478.376 48.0213 478.965 48.928C479.555 49.8347 480.416 50.288 481.549 50.288ZM504.994 56V22.136H497.65V16.696H519.682V22.136H512.27V56H504.994ZM531.154 56.544C529.613 56.544 528.253 56.1133 527.074 55.252C525.895 54.3453 524.966 53.212 524.286 51.852C523.606 50.4467 523.266 48.9733 523.266 47.432C523.266 44.984 523.674 42.9213 524.49 41.244C525.306 39.5667 526.417 38.1613 527.822 37.028C529.273 35.8493 530.927 34.8293 532.786 33.968C534.69 33.1067 536.685 32.268 538.77 31.452V28.664C538.77 27.0773 538.679 25.7627 538.498 24.72C538.317 23.6773 537.931 22.9067 537.342 22.408C536.798 21.864 535.959 21.592 534.826 21.592C533.829 21.592 533.013 21.8187 532.378 22.272C531.789 22.7253 531.358 23.3827 531.086 24.244C530.814 25.06 530.678 26.0347 530.678 27.168V29.14L523.47 28.868C523.561 24.516 524.558 21.32 526.462 19.28C528.366 17.1947 531.313 16.152 535.302 16.152C539.201 16.152 541.966 17.2173 543.598 19.348C545.23 21.4787 546.046 24.5613 546.046 28.596V46.548C546.046 47.772 546.069 48.9507 546.114 50.084C546.205 51.2173 546.295 52.2827 546.386 53.28C546.522 54.232 546.635 55.1387 546.726 56H540.062C539.926 55.2747 539.745 54.368 539.518 53.28C539.337 52.1467 539.201 51.1267 539.11 50.22C538.657 51.7613 537.773 53.212 536.458 54.572C535.189 55.8867 533.421 56.544 531.154 56.544ZM534.01 50.288C534.735 50.288 535.415 50.084 536.05 49.676C536.685 49.268 537.251 48.8147 537.75 48.316C538.249 47.772 538.589 47.3413 538.77 47.024V35.872C537.637 36.5067 536.571 37.1413 535.574 37.776C534.577 38.4107 533.693 39.0907 532.922 39.816C532.197 40.496 531.607 41.2893 531.154 42.196C530.746 43.0573 530.542 44.0547 530.542 45.188C530.542 46.7747 530.837 48.0213 531.426 48.928C532.015 49.8347 532.877 50.288 534.01 50.288ZM552.831 56L553.239 16.696H558.611L567.315 40.836L576.087 16.696H581.459L581.867 56H575.747V32.54L568.471 52.124H566.227L558.951 32.676V56H552.831ZM589.027 56V16.696H596.303V32.948C596.394 32.948 596.507 32.948 596.643 32.948C596.825 32.948 596.983 32.948 597.119 32.948C597.255 32.948 597.369 32.948 597.459 32.948C600.134 32.9933 602.401 33.1973 604.259 33.56C606.163 33.8773 607.705 34.4667 608.883 35.328C610.062 36.144 610.923 37.3 611.467 38.796C612.011 40.2467 612.283 42.128 612.283 44.44C612.283 46.5707 612.011 48.384 611.467 49.88C610.923 51.3307 610.039 52.5093 608.815 53.416C607.591 54.3227 605.982 54.98 603.987 55.388C601.993 55.796 599.567 56 596.711 56H589.027ZM596.303 51.716H596.711C599.023 51.716 600.837 51.512 602.151 51.104C603.466 50.696 604.395 49.9707 604.939 48.928C605.483 47.84 605.755 46.3213 605.755 44.372C605.755 42.604 605.506 41.2213 605.007 40.224C604.554 39.1813 603.693 38.4333 602.423 37.98C601.199 37.4813 599.409 37.232 597.051 37.232C597.006 37.232 596.893 37.232 596.711 37.232C596.53 37.232 596.394 37.232 596.303 37.232V51.716ZM616.771 56V16.696H624.047V56H616.771ZM631.395 56V16.696H638.671V33.22H647.987V16.696H655.263V56H647.987V38.524H638.671V56H631.395Z" fill="url(#paint0_linear_2013_129)"/>
<defs>
<linearGradient id="paint0_linear_2013_129" x1="-4" y1="25.5" x2="659" y2="25.5" gradientUnits="userSpaceOnUse">
<stop stop-color="#FCC914"/>
<stop offset="0.490859" stop-color="#C48409"/>
<stop offset="1.0001" stop-color="#C70404"/>
</linearGradient>
</defs>
</svg>
