<svg width="275" height="66" viewBox="0 0 275 66" fill="none" xmlns="http://www.w3.org/2000/svg">
<path d="M2.61767 64.364V58.448C4.97501 58.6747 6.78834 58.6747 8.05767 58.448C9.37234 58.2213 10.279 57.7453 10.7777 57.02C11.3217 56.34 11.5937 55.4107 11.5937 54.232C11.5937 53.008 11.4577 51.5573 11.1857 49.88L0.305672 0.919996H7.58167L12.2057 24.38L14.9937 41.856L17.4417 24.516L21.5897 0.919996H28.9337L19.0737 50.016C18.6203 52.2373 18.235 54.1867 17.9177 55.864C17.6457 57.5413 17.2377 58.9693 16.6937 60.148C16.195 61.3267 15.4243 62.256 14.3817 62.936C13.339 63.616 11.8657 64.0693 9.96167 64.296C8.10301 64.5227 5.65501 64.5453 2.61767 64.364ZM33.4318 56V16.696H49.2758V21.932H40.7078V56H33.4318ZM52.5424 65.86V60.284C54.3104 60.284 55.7158 60.1933 56.7584 60.012C57.8011 59.876 58.5491 59.5813 59.0024 59.128C59.4558 58.72 59.6824 58.1307 59.6824 57.36C59.6824 56.952 59.5238 56.0453 59.2064 54.64C58.8891 53.2347 58.5491 51.7387 58.1864 50.152L50.2984 16.696H57.6424L62.9464 46.072L68.0464 16.696H75.3904L66.0064 58.176C65.5984 60.08 64.8504 61.576 63.7624 62.664C62.6744 63.7973 61.2691 64.6133 59.5464 65.112C57.8691 65.6107 55.8291 65.86 53.4264 65.86H52.5424ZM79.7833 56V16.696H102.631V56H95.3553V22.204H87.0593V56H79.7833ZM122.137 56L131.997 35.94L122.749 16.696H129.685L138.049 35.6H138.593V16.696H144.577V35.6H145.121L153.417 16.696H160.353L151.105 35.94L160.965 56H154.233L145.121 36.688H144.577V56H138.593V36.688H137.981L128.869 56H122.137ZM171.324 56.544C169.783 56.544 168.423 56.1133 167.244 55.252C166.065 54.3453 165.136 53.212 164.456 51.852C163.776 50.4467 163.436 48.9733 163.436 47.432C163.436 44.984 163.844 42.9213 164.66 41.244C165.476 39.5667 166.587 38.1613 167.992 37.028C169.443 35.8493 171.097 34.8293 172.956 33.968C174.86 33.1067 176.855 32.268 178.94 31.452V28.664C178.94 27.0773 178.849 25.7627 178.668 24.72C178.487 23.6773 178.101 22.9067 177.512 22.408C176.968 21.864 176.129 21.592 174.996 21.592C173.999 21.592 173.183 21.8187 172.548 22.272C171.959 22.7253 171.528 23.3827 171.256 24.244C170.984 25.06 170.848 26.0347 170.848 27.168V29.14L163.64 28.868C163.731 24.516 164.728 21.32 166.632 19.28C168.536 17.1947 171.483 16.152 175.472 16.152C179.371 16.152 182.136 17.2173 183.768 19.348C185.4 21.4787 186.216 24.5613 186.216 28.596V46.548C186.216 47.772 186.239 48.9507 186.284 50.084C186.375 51.2173 186.465 52.2827 186.556 53.28C186.692 54.232 186.805 55.1387 186.896 56H180.232C180.096 55.2747 179.915 54.368 179.688 53.28C179.507 52.1467 179.371 51.1267 179.28 50.22C178.827 51.7613 177.943 53.212 176.628 54.572C175.359 55.8867 173.591 56.544 171.324 56.544ZM174.18 50.288C174.905 50.288 175.585 50.084 176.22 49.676C176.855 49.268 177.421 48.8147 177.92 48.316C178.419 47.772 178.759 47.3413 178.94 47.024V35.872C177.807 36.5067 176.741 37.1413 175.744 37.776C174.747 38.4107 173.863 39.0907 173.092 39.816C172.367 40.496 171.777 41.2893 171.324 42.196C170.916 43.0573 170.712 44.0547 170.712 45.188C170.712 46.7747 171.007 48.0213 171.596 48.928C172.185 49.8347 173.047 50.288 174.18 50.288ZM197.625 56V22.136H190.281V16.696H212.313V22.136H204.901V56H197.625ZM223.785 56.544C222.244 56.544 220.884 56.1133 219.705 55.252C218.526 54.3453 217.597 53.212 216.917 51.852C216.237 50.4467 215.897 48.9733 215.897 47.432C215.897 44.984 216.305 42.9213 217.121 41.244C217.937 39.5667 219.048 38.1613 220.453 37.028C221.904 35.8493 223.558 34.8293 225.417 33.968C227.321 33.1067 229.316 32.268 231.401 31.452V28.664C231.401 27.0773 231.31 25.7627 231.129 24.72C230.948 23.6773 230.562 22.9067 229.973 22.408C229.429 21.864 228.59 21.592 227.457 21.592C226.46 21.592 225.644 21.8187 225.009 22.272C224.42 22.7253 223.989 23.3827 223.717 24.244C223.445 25.06 223.309 26.0347 223.309 27.168V29.14L216.101 28.868C216.192 24.516 217.189 21.32 219.093 19.28C220.997 17.1947 223.944 16.152 227.933 16.152C231.832 16.152 234.597 17.2173 236.229 19.348C237.861 21.4787 238.677 24.5613 238.677 28.596V46.548C238.677 47.772 238.7 48.9507 238.745 50.084C238.836 51.2173 238.926 52.2827 239.017 53.28C239.153 54.232 239.266 55.1387 239.357 56H232.693C232.557 55.2747 232.376 54.368 232.149 53.28C231.968 52.1467 231.832 51.1267 231.741 50.22C231.288 51.7613 230.404 53.212 229.089 54.572C227.82 55.8867 226.052 56.544 223.785 56.544ZM226.641 50.288C227.366 50.288 228.046 50.084 228.681 49.676C229.316 49.268 229.882 48.8147 230.381 48.316C230.88 47.772 231.22 47.3413 231.401 47.024V35.872C230.268 36.5067 229.202 37.1413 228.205 37.776C227.208 38.4107 226.324 39.0907 225.553 39.816C224.828 40.496 224.238 41.2893 223.785 42.196C223.377 43.0573 223.173 44.0547 223.173 45.188C223.173 46.7747 223.468 48.0213 224.057 48.928C224.646 49.8347 225.508 50.288 226.641 50.288ZM245.462 56L245.87 16.696H251.242L259.946 40.836L268.718 16.696H274.09L274.498 56H268.378V32.54L261.102 52.124H258.858L251.582 32.676V56H245.462Z" fill="url(#paint0_linear_2013_129)"/>
<defs>
<linearGradient id="paint0_linear_2013_129" x1="74.5362" y1="-147" x2="314.997" y2="-92.6053" gradientUnits="userSpaceOnUse">
<stop stop-color="#5E14FC"/>
<stop offset="0.490859" stop-color="#0997C4"/>
<stop offset="1.0001" stop-color="#04BCC7"/>
</linearGradient>
</defs>
</svg>
