<svg width="439" height="69" viewBox="0 0 439 69" fill="none" xmlns="http://www.w3.org/2000/svg">
<path d="M3.03955 64.364V58.448C5.39688 58.6747 7.21021 58.6747 8.47955 58.448C9.79421 58.2213 10.7009 57.7453 11.1995 57.02C11.7435 56.34 12.0155 55.4107 12.0155 54.232C12.0155 53.008 11.8795 51.5573 11.6075 49.88L0.727547 0.919996H8.00355L12.6275 24.38L15.4155 41.856L17.8635 24.516L22.0115 0.919996H29.3555L19.4955 50.016C19.0422 52.2373 18.6569 54.1867 18.3395 55.864C18.0675 57.5413 17.6595 58.9693 17.1155 60.148C16.6169 61.3267 15.8462 62.256 14.8035 62.936C13.7609 63.616 12.2875 64.0693 10.3835 64.296C8.52488 64.5227 6.07688 64.5453 3.03955 64.364ZM33.8536 56V16.696H41.1296V33.288H43.1696L50.5816 16.696H58.0616L49.8336 35.736L58.1976 56H50.5816L43.1696 37.64H41.1296V56H33.8536ZM62.0763 56V16.696H69.3523V33.288H71.3923L78.8043 16.696H86.2843L78.0563 35.736L86.4203 56H78.8043L71.3923 37.64H69.3523V56H62.0763ZM97.371 56.544C95.8296 56.544 94.4696 56.1133 93.291 55.252C92.1123 54.3453 91.183 53.212 90.503 51.852C89.823 50.4467 89.483 48.9733 89.483 47.432C89.483 44.984 89.891 42.9213 90.707 41.244C91.523 39.5667 92.6336 38.1613 94.039 37.028C95.4896 35.8493 97.1443 34.8293 99.003 33.968C100.907 33.1067 102.902 32.268 104.987 31.452V28.664C104.987 27.0773 104.896 25.7627 104.715 24.72C104.534 23.6773 104.148 22.9067 103.559 22.408C103.015 21.864 102.176 21.592 101.043 21.592C100.046 21.592 99.2296 21.8187 98.595 22.272C98.0056 22.7253 97.575 23.3827 97.303 24.244C97.031 25.06 96.895 26.0347 96.895 27.168V29.14L89.687 28.868C89.7776 24.516 90.775 21.32 92.679 19.28C94.583 17.1947 97.5296 16.152 101.519 16.152C105.418 16.152 108.183 17.2173 109.815 19.348C111.447 21.4787 112.263 24.5613 112.263 28.596V46.548C112.263 47.772 112.286 48.9507 112.331 50.084C112.422 51.2173 112.512 52.2827 112.603 53.28C112.739 54.232 112.852 55.1387 112.943 56H106.279C106.143 55.2747 105.962 54.368 105.735 53.28C105.554 52.1467 105.418 51.1267 105.327 50.22C104.874 51.7613 103.99 53.212 102.675 54.572C101.406 55.8867 99.6376 56.544 97.371 56.544ZM100.227 50.288C100.952 50.288 101.632 50.084 102.267 49.676C102.902 49.268 103.468 48.8147 103.967 48.316C104.466 47.772 104.806 47.3413 104.987 47.024V35.872C103.854 36.5067 102.788 37.1413 101.791 37.776C100.794 38.4107 99.9096 39.0907 99.139 39.816C98.4136 40.496 97.8243 41.2893 97.371 42.196C96.963 43.0573 96.759 44.0547 96.759 45.188C96.759 46.7747 97.0536 48.0213 97.643 48.928C98.2323 49.8347 99.0936 50.288 100.227 50.288ZM119.252 56V16.696H126.528V33.22H135.844V16.696H143.12V56H135.844V38.524H126.528V56H119.252ZM150.463 56V16.696H166.307V21.932H157.739V56H150.463ZM176.859 56.544C175.318 56.544 173.958 56.1133 172.779 55.252C171.601 54.3453 170.671 53.212 169.991 51.852C169.311 50.4467 168.971 48.9733 168.971 47.432C168.971 44.984 169.379 42.9213 170.195 41.244C171.011 39.5667 172.122 38.1613 173.527 37.028C174.978 35.8493 176.633 34.8293 178.491 33.968C180.395 33.1067 182.39 32.268 184.475 31.452V28.664C184.475 27.0773 184.385 25.7627 184.203 24.72C184.022 23.6773 183.637 22.9067 183.047 22.408C182.503 21.864 181.665 21.592 180.531 21.592C179.534 21.592 178.718 21.8187 178.083 22.272C177.494 22.7253 177.063 23.3827 176.791 24.244C176.519 25.06 176.383 26.0347 176.383 27.168V29.14L169.175 28.868C169.266 24.516 170.263 21.32 172.167 19.28C174.071 17.1947 177.018 16.152 181.007 16.152C184.906 16.152 187.671 17.2173 189.303 19.348C190.935 21.4787 191.751 24.5613 191.751 28.596V46.548C191.751 47.772 191.774 48.9507 191.819 50.084C191.91 51.2173 192.001 52.2827 192.091 53.28C192.227 54.232 192.341 55.1387 192.431 56H185.767C185.631 55.2747 185.45 54.368 185.223 53.28C185.042 52.1467 184.906 51.1267 184.815 50.22C184.362 51.7613 183.478 53.212 182.163 54.572C180.894 55.8867 179.126 56.544 176.859 56.544ZM179.715 50.288C180.441 50.288 181.121 50.084 181.755 49.676C182.39 49.268 182.957 48.8147 183.455 48.316C183.954 47.772 184.294 47.3413 184.475 47.024V35.872C183.342 36.5067 182.277 37.1413 181.279 37.776C180.282 38.4107 179.398 39.0907 178.627 39.816C177.902 40.496 177.313 41.2893 176.859 42.196C176.451 43.0573 176.247 44.0547 176.247 45.188C176.247 46.7747 176.542 48.0213 177.131 48.928C177.721 49.8347 178.582 50.288 179.715 50.288ZM210.743 65.996V51.172C212.103 50.1293 213.35 48.8827 214.483 47.432C215.617 45.9813 216.614 44.1453 217.475 41.924C218.337 39.7027 219.017 36.96 219.515 33.696C220.014 30.432 220.286 26.488 220.331 21.864L220.467 16.696H238.215V50.832H242.975V65.996H237.671L237.059 56H216.659L216.047 65.996H210.743ZM217.815 50.832H231.211V21.932H226.111L225.975 23.36C225.93 28.1653 225.681 32.1773 225.227 35.396C224.819 38.5693 224.23 41.176 223.459 43.216C222.734 45.2107 221.873 46.7973 220.875 47.976C219.923 49.1547 218.903 50.1067 217.815 50.832ZM255.086 56.544C253.544 56.544 252.184 56.1133 251.006 55.252C249.827 54.3453 248.898 53.212 248.218 51.852C247.538 50.4467 247.198 48.9733 247.198 47.432C247.198 44.984 247.606 42.9213 248.422 41.244C249.238 39.5667 250.348 38.1613 251.754 37.028C253.204 35.8493 254.859 34.8293 256.718 33.968C258.622 33.1067 260.616 32.268 262.702 31.452V28.664C262.702 27.0773 262.611 25.7627 262.43 24.72C262.248 23.6773 261.863 22.9067 261.274 22.408C260.73 21.864 259.891 21.592 258.758 21.592C257.76 21.592 256.944 21.8187 256.31 22.272C255.72 22.7253 255.29 23.3827 255.018 24.244C254.746 25.06 254.61 26.0347 254.61 27.168V29.14L247.402 28.868C247.492 24.516 248.49 21.32 250.394 19.28C252.298 17.1947 255.244 16.152 259.234 16.152C263.132 16.152 265.898 17.2173 267.53 19.348C269.162 21.4787 269.978 24.5613 269.978 28.596V46.548C269.978 47.772 270 48.9507 270.046 50.084C270.136 51.2173 270.227 52.2827 270.318 53.28C270.454 54.232 270.567 55.1387 270.658 56H263.994C263.858 55.2747 263.676 54.368 263.45 53.28C263.268 52.1467 263.132 51.1267 263.042 50.22C262.588 51.7613 261.704 53.212 260.39 54.572C259.12 55.8867 257.352 56.544 255.086 56.544ZM257.942 50.288C258.667 50.288 259.347 50.084 259.982 49.676C260.616 49.268 261.183 48.8147 261.682 48.316C262.18 47.772 262.52 47.3413 262.702 47.024V35.872C261.568 36.5067 260.503 37.1413 259.506 37.776C258.508 38.4107 257.624 39.0907 256.854 39.816C256.128 40.496 255.539 41.2893 255.086 42.196C254.678 43.0573 254.474 44.0547 254.474 45.188C254.474 46.7747 254.768 48.0213 255.358 48.928C255.947 49.8347 256.808 50.288 257.942 50.288ZM273.975 56L281.387 39.34C280.118 38.8413 279.075 38.0933 278.259 37.096C277.488 36.0987 276.922 34.8747 276.559 33.424C276.196 31.9733 276.015 30.3413 276.015 28.528C276.015 26.4427 276.287 24.652 276.831 23.156C277.375 21.66 278.236 20.436 279.415 19.484C280.594 18.532 282.158 17.8293 284.107 17.376C286.056 16.9227 288.459 16.696 291.315 16.696H298.931V56H291.723V40.496C290.998 40.496 290.386 40.496 289.887 40.496C289.388 40.4507 288.844 40.4053 288.255 40.36L281.795 56H273.975ZM290.907 36.28C290.998 36.28 291.134 36.28 291.315 36.28C291.542 36.28 291.678 36.28 291.723 36.28V20.844C291.678 20.844 291.542 20.844 291.315 20.844C291.134 20.844 291.02 20.844 290.975 20.844C288.844 20.844 287.144 21.116 285.875 21.66C284.651 22.1587 283.79 22.9747 283.291 24.108C282.792 25.196 282.543 26.6693 282.543 28.528C282.543 31.112 283.11 33.0387 284.243 34.308C285.422 35.5773 287.643 36.2347 290.907 36.28ZM306.318 68.92V16.696H313.594V19.824C314.456 18.8267 315.498 17.9653 316.722 17.24C317.946 16.5147 319.397 16.152 321.074 16.152C323.114 16.152 324.724 16.696 325.902 17.784C327.126 18.8267 328.033 20.164 328.622 21.796C329.212 23.3827 329.597 25.0147 329.778 26.692C329.96 28.324 330.05 29.7293 330.05 30.908V40.428C330.05 43.1933 329.778 45.8227 329.234 48.316C328.69 50.764 327.693 52.7587 326.242 54.3C324.837 55.796 322.842 56.544 320.258 56.544C318.853 56.544 317.606 56.204 316.518 55.524C315.43 54.7987 314.456 53.9827 313.594 53.076V68.92H306.318ZM318.83 50.832C320.1 50.832 321.006 50.3787 321.55 49.472C322.094 48.52 322.434 47.2507 322.57 45.664C322.706 44.0773 322.774 42.332 322.774 40.428V30.908C322.774 29.276 322.684 27.78 322.502 26.42C322.321 25.0147 321.936 23.904 321.346 23.088C320.757 22.272 319.828 21.864 318.558 21.864C317.606 21.864 316.7 22.068 315.838 22.476C314.977 22.884 314.229 23.36 313.594 23.904V49.064C314.274 49.5627 315.045 49.9933 315.906 50.356C316.768 50.6733 317.742 50.832 318.83 50.832ZM336.462 56L336.87 16.696H342.242L350.946 40.836L359.718 16.696H365.09L365.498 56H359.378V32.54L352.102 52.124H349.858L342.582 32.676V56H336.462ZM372.658 56V16.696H379.934V32.948C380.025 32.948 380.138 32.948 380.274 32.948C380.456 32.948 380.614 32.948 380.75 32.948C380.886 32.948 381 32.948 381.09 32.948C383.765 32.9933 386.032 33.1973 387.89 33.56C389.794 33.8773 391.336 34.4667 392.514 35.328C393.693 36.144 394.554 37.3 395.098 38.796C395.642 40.2467 395.914 42.128 395.914 44.44C395.914 46.5707 395.642 48.384 395.098 49.88C394.554 51.3307 393.67 52.5093 392.446 53.416C391.222 54.3227 389.613 54.98 387.618 55.388C385.624 55.796 383.198 56 380.342 56H372.658ZM379.934 51.716H380.342C382.654 51.716 384.468 51.512 385.782 51.104C387.097 50.696 388.026 49.9707 388.57 48.928C389.114 47.84 389.386 46.3213 389.386 44.372C389.386 42.604 389.137 41.2213 388.638 40.224C388.185 39.1813 387.324 38.4333 386.054 37.98C384.83 37.4813 383.04 37.232 380.682 37.232C380.637 37.232 380.524 37.232 380.342 37.232C380.161 37.232 380.025 37.232 379.934 37.232V51.716ZM400.402 56V16.696H407.678V56H400.402ZM415.026 56V16.696H422.302V33.22H431.618V16.696H438.894V56H431.618V38.524H422.302V56H415.026Z" fill="url(#paint0_linear_2013_129)"/>
<defs>
<linearGradient id="paint0_linear_2013_129" x1="-1" y1="25.5" x2="443" y2="25.5" gradientUnits="userSpaceOnUse">
<stop stop-color="#018656"/>
<stop offset="1" stop-color="#737373"/>
<stop offset="1.0001" stop-color="#121212"/>
</linearGradient>
</defs>
</svg>
